<?xml version="1.0" encoding="iso-8859-1"?>
<!-- Generator: Adobe Illustrator 19.0.0, SVG Export Plug-In . SVG Version: 6.00 Build 0)  -->
<svg version="1.1" id="Capa_1" xmlns="http://www.w3.org/2000/svg" xmlns:xlink="http://www.w3.org/1999/xlink" x="0px" y="0px"
	 viewBox="0 0 466.854 466.854" style="enable-background:new 0 0 466.854 466.854;" xml:space="preserve">
<path style="fill:#FBCF4C;" d="M92.368,263.427c-5.6,0-11.2-0.8-16-2.4l-5.6-1.6v-6.4c0.8-20.8,15.2-40,23.2-49.6l4.8-4.8l5.6,4
	c6.4,4.8,14.4,8,21.6,10.4l8,2.4l-2.4,8c-2.4,8-4,16-3.2,24.8l0.8,5.6l-4.8,2.4C113.968,260.227,102.768,262.627,92.368,263.427
	L92.368,263.427z M146.768,353.827l6.4-1.6c23.2-7.2,40-29.6,48-42.4l3.2-5.6l-4.8-4c-3.2-3.2-6.4-6.4-9.6-9.6l-5.6-6.4l-6.4,4.8
	c-10.4,8.8-22.4,16-35.2,20.8l-4.8,0.8l-0.8,4.8c-1.6,11.2,0.8,22.4,6.4,32.8L146.768,353.827z M122.768,312.227h6.4
	c21.6-0.8,40.8-15.2,50.4-24l4.8-4.8l-3.2-5.6c-4-5.6-6.4-12.8-8.8-19.2l-2.4-8l-8,2.4c-6.4,2.4-13.6,3.2-20,3.2
	c-2.4,0-4.8,0-7.2-0.8l-5.6-0.8l-2.4,5.6c-7.2,14.4-9.6,30.4-4.8,45.6L122.768,312.227z M138.768,353.827l4.8-4l-2.4-5.6
	c-3.2-8-5.6-16-4.8-24l0.8-8.8h-8.8h-0.8h-4c-0.8-0.8-0.8-2.4-1.6-3.2l-3.2-8.8l-8,4c-6.4,3.2-12.8,5.6-19.2,6.4l-3.2,0.8l-2.4,3.2
	c-11.2,16.8-8,44.8-7.2,52.8l0.8,6.4l6.4,0.8c1.6,0,3.2,0,4.8,0C110.768,374.627,130.768,360.227,138.768,353.827L138.768,353.827z
	 M68.368,296.227l3.2-1.6l0.8-3.2c0.8-7.2,3.2-13.6,7.2-19.2l4.8-8l-10.4-4c-0.8,0-2.4-0.8-3.2-1.6c0-1.6,0-3.2,0-4.8v-8.8l-8.8,0.8
	h-2.4c-7.2,0-15.2-1.6-21.6-4.8l-5.6-2.4l-4,4.8c-6.4,8.8-22.4,32-20,53.6l0.8,6.4l6.4,0.8c5.6,0.8,12,1.6,17.6,1.6
	C45.168,305.027,57.168,302.627,68.368,296.227z M44.368,370.627c9.6,0,19.2-1.6,28.8-5.6l5.6-2.4v-6.4c-1.6-12,0-24.8,3.2-36
	l3.2-8.8l-10.4-2.4c-0.8,0-0.8,0-1.6-0.8l-0.8-0.8h-0.8c0-0.8-0.8-1.6-0.8-3.2l-2.4-9.6l-8.8,3.2c-8.8,3.2-18.4,4.8-28,4.8
	c-2.4,0-5.6,0-8,0h-4.8l-2.4,5.6c-3.2,11.2-10.4,36.8,1.6,53.6l0.8,1.6l1.6,0.8C27.568,368.227,35.568,370.627,44.368,370.627
	L44.368,370.627z M60.368,245.827c2.4,0,4.8,0,7.2-0.8l4.8-0.8l1.6-4.8c4-12.8,11.2-24.8,20-35.2l4.8-6.4l-5.6-5.6
	c-3.2-3.2-6.4-6.4-9.6-9.6l-4.8-4.8l-5.6,3.2c-12.8,8-35.2,24-42.4,48l-1.6,6.4l4.8,3.2
	C41.968,243.427,50.768,245.827,60.368,245.827L60.368,245.827z M85.168,311.427c11.2-0.8,21.6-4,31.2-10.4l4-2.4v-4.8
	c-0.8-8,0.8-16,3.2-24l4.8-14.4l-15.2,4.8c-6.4,2.4-12.8,3.2-19.2,3.2h-4h-4.8l-3.2,3.2c-7.2,11.2-11.2,24-9.6,37.6l0.8,5.6l5.6,0.8
	C81.168,311.427,82.768,311.427,85.168,311.427L85.168,311.427z"/>
<path style="fill:#EDB248;" d="M198.768,300.227c-3.2-3.2-6.4-6.4-9.6-10.4c-8.8,12.8-24,31.2-44.8,37.6l-6.4,1.6l-3.2-5.6
	c-0.8-1.6,0.8,2.4,0.8,2.4l-4.8,4c-8,6.4-28.8,20-48.8,20c-1.6,0-3.2,0-4.8,0h-0.8v0.8v-0.8l-5.6-0.8l-0.8-6.4c0-2.4-0.8-4-0.8-4
	l-5.6,2.4c-8,3.2-17.6,4.8-27.2,4.8c-8.8,0-16.8-1.6-24-6.4l-0.8-0.8c0,8,2.4,16,6.4,23.2l0.8,1.6l1.6,0.8c7.2,4.8,15.2,6.4,24,6.4
	c9.6,0,19.2-1.6,28.8-5.6l5.6-2.4c0,0,0,1.6,0.8,4l0.8,6.4l6.4,0.8c1.6,0,3.2,0,4.8,0c20,0,40.8-14.4,48.8-20l4.8-4l2.4,4l6.4-1.6
	c23.2-7.2,40-29.6,48-42.4l3.2-5.6L198.768,300.227z"/>
<path style="fill:#A3CB6F;" d="M252.368,300.227c-16-49.6,24.8-99.2,29.6-104.8v-0.8h0.8c6.4-5.6,40.8-32.8,80.8-32.8
	c8,0,16,1.6,24,4l11.2,4l-8,8l-0.8,0.8l-0.8,0.8v0.8v0.8c-11.2,12.8-30.4,28.8-53.6,32c0,0,9.6,20.8,6.4,36l-0.8,4.8l-4.8,0.8
	c-2.4,0.8-4.8,0.8-7.2,0.8c-9.6-0.8-19.2-2.4-28.8-6.4c-3.2,25.6-23.2,46.4-34.4,56l-8.8,7.2L252.368,300.227z"/>
<path style="fill:#92B762;" d="M387.568,165.027c-4-1.6-8.8-2.4-12.8-3.2l-3.2,4l-1.6,1.6l-0.8,0.8v0.8v0.8
	c-11.2,12.8-30.4,28.8-53.6,32c0,0,9.6,20.8,6.4,36l-1.6,4l-4.8,0.8c-2.4,0.8-4.8,0.8-7.2,0.8c-9.6-0.8-19.2-2.4-28.8-6.4
	c-2.4,22.4-18.4,40.8-30.4,52c0.8,4,1.6,8,2.4,12l4,11.2l8.8-7.2c12-9.6,32-29.6,34.4-56c8.8,4,18.4,6.4,28.8,6.4
	c2.4,0,4.8,0,7.2-0.8l4.8-0.8l0.8-4.8c3.2-15.2-6.4-36-6.4-36c23.2-2.4,41.6-19.2,53.6-32v-0.8v-0.8l0.8-0.8l0.8-0.8l7.2-8.8
	L387.568,165.027z"/>
<path style="fill:#FBCF4C;" d="M435.568,305.827c-12,0.8-24.8-1.6-36-8l-3.2-1.6l-0.8-3.2c-0.8-7.2-3.2-13.6-6.4-19.2l-4-8l8.8-3.2
	c0.8,0,2.4-0.8,3.2-1.6c0-1.6,0-3.2,0-4.8v-8.8l8.8,0.8h2.4c7.2,0,15.2-2.4,21.6-5.6l5.6-2.4l4,4.8c6.4,8.8,22.4,32,20,53.6
	l-0.8,6.4l-6.4,0.8C447.568,305.827,441.168,305.827,435.568,305.827z M389.968,312.227l5.6-0.8l0.8-5.6c1.6-13.6-1.6-26.4-9.6-37.6
	l-2.4-4h-4.8h-4c-6.4,0-12.8-0.8-19.2-3.2l-14.4-4.8l4.8,15.2c2.4,8,3.2,16,3.2,24v4.8l4,2.4c8.8,6.4,20,9.6,30.4,10.4
	C385.968,312.227,387.568,312.227,389.968,312.227L389.968,312.227z M375.568,264.227c5.6,0,11.2-0.8,16-2.4l5.6-1.6v-6.4
	c-0.8-21.6-15.2-40.8-24-50.4l-4-4.8l-5.6,3.2c-5.6,4-12.8,6.4-19.2,8.8l-8,2.4l2.4,8c3.2,8.8,4,17.6,2.4,27.2l-1.6,6.4l5.6,2.4
	C355.568,261.827,365.168,264.227,375.568,264.227L375.568,264.227z M408.368,246.627c8.8,0,17.6-2.4,25.6-7.2l5.6-3.2l-1.6-6.4
	c-6.4-23.2-29.6-40-42.4-48l-5.6-3.2l-4,5.6c-3.2,3.2-6.4,7.2-10.4,9.6l-6.4,5.6l5.6,6.4c8.8,10.4,16,22.4,20,35.2l1.6,4.8l4.8,0.8
	C403.568,246.627,405.968,246.627,408.368,246.627L408.368,246.627z M448.368,365.027l1.6-0.8l0.8-1.6c11.2-17.6,4.8-42.4,0.8-52.8
	l-2.4-5.6h-6.4c-2.4,0-5.6,0-8,0c-9.6,0-19.2-1.6-28-4.8l-8.8-1.6l-2.4,9.6c0,0.8-0.8,1.6-0.8,3.2l-0.8,0.8h-1.6l-10.4,2.4l4,8
	c4,12,5.6,24,4,36v6.4l5.6,2.4c9.6,3.2,19.2,4.8,28.8,5.6C433.168,371.427,441.168,369.827,448.368,365.027L448.368,365.027z
	 M345.168,313.027l1.6-5.6c4-16,2.4-33.6-6.4-48l-2.4-5.6l-5.6,0.8h-4c-7.2,0-13.6-0.8-20.8-3.2l-8-2.4l-2.4,8
	c-2.4,8-5.6,15.2-10.4,21.6l-4,5.6l5.6,4.8c9.6,8,28,22.4,49.6,23.2L345.168,313.027z M321.168,355.427l3.2-5.6
	c5.6-9.6,8-21.6,6.4-32.8l-0.8-4.8l-4.8-1.6c-12.8-4.8-24.8-11.2-35.2-20.8l-6.4-5.6l-5.6,5.6c-3.2,3.2-6.4,6.4-9.6,9.6l-4.8,4
	l3.2,5.6c8,12.8,24,36,48,42.4L321.168,355.427z M377.168,375.427c1.6,0,3.2,0,4.8,0l6.4-0.8l0.8-6.4c0.8-8,4-36-7.2-52.8l-1.6-3.2
	l-3.2-0.8c-7.2-0.8-13.6-3.2-19.2-7.2l-8-4l-4,8.8c0,0.8-0.8,2.4-1.6,3.2h-4h-0.8h-8.8l0.8,8.8c0,8.8-1.6,16.8-4.8,24.8l-2.4,5.6
	l4.8,4C337.168,361.827,357.168,375.427,377.168,375.427L377.168,375.427z"/>
<g>
	<path style="fill:#EDB248;" d="M439.568,244.227l-4-4.8l-5.6,2.4l0,0l-3.2,1.6l-2.4,0.8l-3.2,0.8l-3.2,0.8l-3.2,0.8h-4
		c7.2,10.4,20,31.2,18.4,51.2l-0.8,6.4l-6.4,0.8h-1.6h2.4h1.6c3.2,0,6.4,0.8,10.4,0.8h0.8h6.4h0.8h2.4l7.2-0.8l6.4-0.8l0.8-6.4
		C461.968,276.227,446.768,253.027,439.568,244.227z"/>
	<path style="fill:#EDB248;" d="M442.768,305.827L442.768,305.827h-6.4h-1.6c-3.2,0-6.4,0-9.6-0.8h-1.6h-2.4l-5.6,0.8h3.2l2.4,5.6
		c3.2,10.4,10.4,35.2-0.8,52.8l-0.8,1.6l-1.6,0.8c-3.2,1.6-6.4,3.2-9.6,4.8c5.6,0.8,11.2,1.6,16,1.6c8.8,0,16.8-1.6,24-6.4l1.6-0.8
		l0.8-1.6c11.2-17.6,4.8-42.4,0.8-52.8l-2.4-5.6h-3.2h-2.4H442.768z"/>
	<path style="fill:#EDB248;" d="M421.968,245.027l3.2-0.8l2.4-0.8l3.2-1.6l4-1.6l5.6-3.2l-1.6-6.4c-6.4-23.2-29.6-40-42.4-48
		l-5.6-3.2l-4.8,4.8c-2.4,2.4-4.8,4.8-8,7.2c13.6,9.6,24,23.2,29.6,39.2l1.6,6.4l-5.6,3.2l-4,1.6l0,0l5.6-2.4l4,4.8l1.6,2.4
		c1.6,0,2.4,0,4,0l3.2-0.8L421.968,245.027z"/>
</g>
<path style="fill:#A3CB6F;" d="M204.368,304.227L204.368,304.227l-1.6-0.8h-0.8c-12.8-11.2-29.6-30.4-32-53.6
	c-8.8,4-19.2,6.4-28.8,6.4c-2.4,0-4.8,0-7.2-0.8l-4-0.8l-1.6-4.8c-3.2-15.2,6.4-36,6.4-36c-25.6-3.2-46.4-23.2-56-34.4l-7.2-9.6
	l11.2-4c8-2.4,16-4,24-4c40,0,76.8,29.6,80.8,32.8h0.8v0.8c4.8,5.6,45.6,56,29.6,104.8l-4,11.2L204.368,304.227z"/>
<path style="fill:#92B762;" d="M188.368,197.027L188.368,197.027l-0.8-0.8c-4-3.2-40-32.8-80.8-32.8c-4.8,0-9.6,0.8-13.6,1.6
	c24,4.8,47.2,16,66.4,32h0.8v0.8c4,4.8,40.8,49.6,32,95.2c3.2,4,7.2,7.2,11.2,10.4h0.8h0.8l0.8,0.8l9.6,8.8l3.2-10.4
	C233.968,252.227,193.168,202.627,188.368,197.027z"/>
<path style="fill:#3a2f2f;" d="M446.768,235.427c-4.8-28.8-31.2-49.6-44.8-58.4c1.6-1.6,2.4-3.2,2.4-3.2c2.4-4,1.6-8.8-2.4-11.2
	c0,0-0.8,0-0.8-0.8c-12-5.6-24.8-8.8-37.6-8.8c-36,0-67.2,20.8-80.8,31.2l-39.2-38.4v-54.4c0-4.8-3.2-8-8-8s-8,3.2-8,8v54.4l-40,40
	c-12.8-9.6-44.8-31.2-80.8-31.2c-12.8,0-26.4,3.2-38.4,8.8c-4,2.4-5.6,7.2-3.2,11.2l0,0l0.8,0.8c-14.4,8.8-40.8,28.8-45.6,57.6
	c0,1.6,0,3.2,0.8,4c-8.8,13.6-27.2,42.4-19.2,68c0.8,3.2,3.2,4.8,6.4,5.6h0.8c-4,13.6-9.6,39.2,3.2,57.6l0.8,0.8
	c0.8,0.8,0.8,1.6,1.6,1.6c8.8,5.6,18.4,8.8,28.8,8c9.6,0,19.2-1.6,28-4.8v0.8c0.8,3.2,2.4,5.6,5.6,6.4c4,0.8,8.8,1.6,12.8,1.6
	c21.6,0,43.2-13.6,53.6-21.6c0.8,0.8,1.6,0.8,3.2,0.8h1.6c28.8-4.8,48.8-31.2,57.6-45.6l3.2,2.4c1.6,0.8,2.4,1.6,4,1.6
	c0.8,0,1.6,0,2.4,0c2.4-0.8,4-2.4,4.8-4c24.8-48.8-8.8-100.8-22.4-118.4l36-36l36,35.2c-13.6,17.6-47.2,68.8-21.6,118.4
	c1.6,4,6.4,5.6,10.4,3.2c0,0,0.8,0,0.8-0.8l0.8-0.8c8.8,14.4,28.8,40.8,58.4,45.6h1.6c0.8,0,2.4,0,3.2-0.8c10.4,8,32,21.6,53.6,21.6
	c4,0,8.8-0.8,12.8-1.6c3.2-0.8,4.8-3.2,5.6-6.4v-0.8c8.8,3.2,18.4,4.8,28,4.8c10.4,0.8,20.8-2.4,28.8-8c0.8-0.8,1.6-0.8,1.6-1.6
	l0.8-0.8c12.8-18.4,8-43.2,4-57.6h0.8c2.4-0.8,4.8-3.2,5.6-5.6c7.2-25.6-10.4-53.6-20-66.4
	C446.768,238.627,447.568,237.027,446.768,235.427z M34.768,248.227c8,4,16.8,5.6,25.6,5.6h3.2c0,1.6,0,4,0,5.6c0,2.4,1.6,5.6,4,6.4
	c1.6,0.8,2.4,1.6,4,1.6c-4,7.2-6.4,14.4-8,22.4c-12.8,8-35.2,7.2-48,5.6C13.968,278.627,25.968,258.627,34.768,248.227z
	 M69.968,357.827c-11.2,4-32.8,8.8-45.6,0c-8.8-12.8-4-33.6,0-45.6c2.4,0,5.6,0,8.8,0c10.4,0,21.6-1.6,31.2-5.6c0,1.6,0.8,2.4,0.8,4
	c0.8,1.6,1.6,3.2,3.2,4c0.8,0.8,1.6,1.6,3.2,2.4c0.8,0,2.4,0.8,4,0.8C69.968,330.627,68.368,344.227,69.968,357.827z
	 M65.168,237.027c-9.6,0.8-19.2-0.8-27.2-5.6c6.4-21.6,28.8-36.8,39.2-43.2c3.2,4,6.4,7.2,10.4,10.4
	C77.168,209.827,69.968,223.427,65.168,237.027L65.168,237.027z M99.568,209.027c7.2,4.8,15.2,8.8,24,11.2c-3.2,8.8-4,18.4-4,28
	c-12.8,7.2-28,8.8-41.6,5.6C79.568,234.627,92.368,217.027,99.568,209.027z M79.568,302.627c-0.8-11.2,1.6-22.4,8.8-32h4.8
	c7.2,0,15.2-1.6,21.6-3.2c-3.2,8.8-4,17.6-3.2,26.4C101.968,300.227,90.768,303.427,79.568,302.627z M86.768,365.827
	c-1.6-12.8-2.4-35.2,5.6-48c8-1.6,15.2-4,22.4-8c0.8,1.6,0.8,3.2,1.6,4c1.6,2.4,4,4,6.4,4h4.8h1.6c-0.8,9.6,1.6,19.2,5.6,28
	C123.568,356.227,103.568,368.227,86.768,365.827z M129.168,303.427c-3.2-13.6-1.6-28,4.8-40c10.4,1.6,20.8,0,31.2-3.2
	c2.4,7.2,5.6,14.4,9.6,20.8C165.968,289.027,148.368,302.627,129.168,303.427z M150.768,344.227c-4.8-8-6.4-17.6-5.6-27.2
	c14.4-4.8,27.2-12,38.4-22.4c3.2,4,6.4,7.2,10.4,11.2C187.568,316.227,171.568,337.827,150.768,344.227L150.768,344.227z
	 M209.968,299.427L209.968,299.427c-0.8-0.8-1.6-1.6-2.4-1.6c-11.2-9.6-27.2-27.2-28.8-48c-0.8-4.8-4.8-8-8.8-8
	c-0.8,0-1.6,0-2.4,0.8c-8,3.2-16.8,5.6-25.6,6.4c-1.6,0-3.2,0-5.6-0.8c-0.8-10.4,0.8-20.8,5.6-31.2c1.6-4,0-8.8-4-10.4
	c-0.8,0-1.6-0.8-2.4-0.8c-23.2-2.4-41.6-20.8-50.4-32c7.2-2.4,14.4-3.2,21.6-3.2c37.6,0,71.2,28,75.2,31.2
	C186.768,206.627,225.168,253.827,209.968,299.427z M259.568,297.827c-15.2-45.6,24-92.8,28-97.6s37.6-30.4,75.2-30.4
	c7.2,0,14.4,0.8,21.6,3.2l0,0c-0.8,0.8-1.6,1.6-1.6,2.4c-9.6,11.2-27.2,26.4-48,28.8c-4,0.8-7.2,4.8-7.2,8.8c0,0.8,0,1.6,0.8,2.4
	c4.8,9.6,6.4,20,5.6,30.4c-1.6,0-3.2,0.8-5.6,0.8c-8.8-0.8-17.6-2.4-25.6-6.4c-4-1.6-8.8,0-10.4,4c0,0.8-0.8,1.6-0.8,2.4
	C289.168,270.627,270.768,289.027,259.568,297.827z M317.168,345.827c-21.6-6.4-36.8-28.8-43.2-39.2c4-3.2,7.2-6.4,10.4-10.4
	c11.2,9.6,24,17.6,38.4,22.4C324.368,328.227,321.968,337.827,317.168,345.827z M294.768,283.427c4.8-7.2,8.8-15.2,11.2-24
	c8.8,3.2,18.4,4,28,3.2c7.2,12.8,9.6,28,5.6,42.4C320.368,304.227,302.768,290.627,294.768,283.427z M381.168,367.427
	c-16.8,1.6-36.8-10.4-48-18.4c4-8.8,6.4-18.4,5.6-28h1.6h4.8c2.4,0,5.6-1.6,6.4-4c0.8-1.6,1.6-2.4,1.6-4c7.2,4,14.4,6.4,22.4,8
	C383.568,332.227,382.768,354.627,381.168,367.427z M388.368,304.227c-11.2,0.8-22.4-1.6-32-8c0.8-8.8-0.8-18.4-3.2-26.4
	c7.2,2.4,14.4,3.2,22.4,3.2h4.8C386.768,281.027,389.168,292.227,388.368,304.227z M349.168,249.827c1.6-10.4,0-20.8-3.2-31.2
	c7.2-2.4,14.4-5.6,21.6-9.6c7.2,8,20.8,25.6,21.6,44.8C375.568,257.827,361.168,256.227,349.168,249.827z M380.368,200.227
	c4-3.2,7.2-6.4,10.4-10.4c10.4,6.4,32.8,21.6,38.4,43.2c-8,4.8-17.6,6.4-27.2,5.6C397.968,224.227,390.768,211.427,380.368,200.227
	L380.368,200.227z M443.568,358.627c-12.8,8.8-33.6,4-45.6,0c1.6-13.6-0.8-27.2-4.8-40c1.6,0,2.4-0.8,4-0.8c1.6-0.8,2.4-0.8,3.2-2.4
	c1.6-0.8,2.4-2.4,3.2-4c0-1.6,0.8-2.4,0.8-4c10.4,4,20.8,5.6,31.2,5.6c3.2,0,5.6,0,8.8,0
	C447.568,325.027,452.368,345.827,443.568,358.627L443.568,358.627z M451.568,297.027c-12.8,1.6-35.2,2.4-48-5.6
	c-1.6-8-4-15.2-8-22.4c1.6-0.8,3.2-0.8,4-1.6c2.4-1.6,4-4,4-6.4c0-1.6,0-4,0-5.6h3.2c8.8,0,17.6-2.4,25.6-5.6
	C441.968,259.427,453.968,280.227,451.568,297.027L451.568,297.027z"/>
<g>
</g>
<g>
</g>
<g>
</g>
<g>
</g>
<g>
</g>
<g>
</g>
<g>
</g>
<g>
</g>
<g>
</g>
<g>
</g>
<g>
</g>
<g>
</g>
<g>
</g>
<g>
</g>
<g>
</g>
</svg>
